<svg width="768" height="224" viewBox="0 0 768 224" fill="none" xmlns="http://www.w3.org/2000/svg">
<g filter="url(#filter0_b_1_141)">
<rect width="768" height="224" rx="24" fill="#FEFEFE" fill-opacity="0.1"/>
<path d="M110 63.3333H120C122.189 63.3333 124.356 63.7643 126.378 64.6019C128.4 65.4395 130.237 66.6672 131.785 68.2148C133.333 69.7624 134.56 71.5998 135.398 73.6219C136.236 75.644 136.667 77.8112 136.667 79.9999C136.667 82.1886 136.236 84.3559 135.398 86.378C134.56 88.4001 133.333 90.2374 131.785 91.785C130.237 93.3327 128.4 94.5603 126.378 95.3979C124.356 96.2355 122.189 96.6666 120 96.6666H110M90 96.6666H80C77.8113 96.6666 75.644 96.2355 73.6219 95.3979C71.5998 94.5603 69.7625 93.3327 68.2149 91.785C65.0893 88.6594 63.3333 84.4202 63.3333 79.9999C63.3333 75.5796 65.0893 71.3404 68.2149 68.2148C71.3405 65.0892 75.5797 63.3333 80 63.3333H90" stroke="#141414" stroke-width="2" stroke-linecap="round" stroke-linejoin="round"/>
<path d="M86.6667 80H113.333" stroke="#141414" stroke-width="2" stroke-linecap="round" stroke-linejoin="round"/>
<path d="M182 63.3333H192C194.189 63.3333 196.356 63.7643 198.378 64.6019C200.4 65.4395 202.237 66.6672 203.785 68.2148C205.333 69.7624 206.56 71.5998 207.398 73.6219C208.236 75.644 208.667 77.8112 208.667 79.9999C208.667 82.1886 208.236 84.3559 207.398 86.378C206.56 88.4001 205.333 90.2374 203.785 91.785C202.237 93.3327 200.4 94.5603 198.378 95.3979C196.356 96.2355 194.189 96.6666 192 96.6666H182M162 96.6666H152C149.811 96.6666 147.644 96.2355 145.622 95.3979C143.6 94.5603 141.763 93.3327 140.215 91.785C137.089 88.6594 135.333 84.4202 135.333 79.9999C135.333 75.5796 137.089 71.3404 140.215 68.2148C143.34 65.0892 147.58 63.3333 152 63.3333H162" stroke="#141414" stroke-width="2" stroke-linecap="round" stroke-linejoin="round"/>
<path d="M158.667 80H185.333" stroke="#141414" stroke-width="2" stroke-linecap="round" stroke-linejoin="round"/>
<path d="M254 63.3333H264C266.189 63.3333 268.356 63.7643 270.378 64.6019C272.4 65.4395 274.237 66.6672 275.785 68.2148C277.333 69.7624 278.56 71.5998 279.398 73.6219C280.236 75.644 280.667 77.8112 280.667 79.9999C280.667 82.1886 280.236 84.3559 279.398 86.378C278.56 88.4001 277.333 90.2374 275.785 91.785C274.237 93.3327 272.4 94.5603 270.378 95.3979C268.356 96.2355 266.189 96.6666 264 96.6666H254M234 96.6666H224C221.811 96.6666 219.644 96.2355 217.622 95.3979C215.6 94.5603 213.763 93.3327 212.215 91.785C209.089 88.6594 207.333 84.4202 207.333 79.9999C207.333 75.5796 209.089 71.3404 212.215 68.2148C215.34 65.0892 219.58 63.3333 224 63.3333H234" stroke="#141414" stroke-width="2" stroke-linecap="round" stroke-linejoin="round"/>
<path d="M230.667 80H257.333" stroke="#141414" stroke-width="2" stroke-linecap="round" stroke-linejoin="round"/>
<path d="M304 79C303.448 79 303 79.4477 303 80C303 80.5523 303.448 81 304 81V79ZM344 80L334 74.2265V85.7735L344 80ZM304 81H335V79H304V81Z" fill="#005AE2"/>
<path d="M414 63.3333H424C426.189 63.3333 428.356 63.7643 430.378 64.6019C432.4 65.4395 434.237 66.6672 435.785 68.2148C437.333 69.7624 438.56 71.5998 439.398 73.6219C440.236 75.644 440.667 77.8112 440.667 79.9999C440.667 82.1886 440.236 84.3559 439.398 86.378C438.56 88.4001 437.333 90.2374 435.785 91.785C434.237 93.3327 432.4 94.5603 430.378 95.3979C428.356 96.2355 426.189 96.6666 424 96.6666H414M394 96.6666H384C381.811 96.6666 379.644 96.2355 377.622 95.3979C375.6 94.5603 373.763 93.3327 372.215 91.785C369.089 88.6594 367.333 84.4202 367.333 79.9999C367.333 75.5796 369.089 71.3404 372.215 68.2148C375.34 65.0892 379.58 63.3333 384 63.3333H394" stroke="#141414" stroke-width="2" stroke-linecap="round" stroke-linejoin="round"/>
<path d="M390.667 80H417.333" stroke="#141414" stroke-width="2" stroke-linecap="round" stroke-linejoin="round"/>
<path d="M209.558 152.208C208.513 152.208 207.617 151.963 206.87 151.472C206.134 150.981 205.617 150.309 205.318 149.456L206.598 148.72C207.036 150.075 208.033 150.752 209.59 150.752C210.358 150.752 210.945 150.597 211.35 150.288C211.756 149.968 211.958 149.547 211.958 149.024C211.958 148.491 211.756 148.091 211.35 147.824C210.945 147.557 210.268 147.275 209.318 146.976C208.849 146.827 208.492 146.709 208.246 146.624C208.001 146.528 207.692 146.389 207.318 146.208C206.956 146.016 206.684 145.824 206.502 145.632C206.321 145.429 206.156 145.168 206.006 144.848C205.868 144.528 205.798 144.165 205.798 143.76C205.798 142.789 206.14 142.021 206.822 141.456C207.505 140.88 208.337 140.592 209.318 140.592C210.204 140.592 210.972 140.816 211.622 141.264C212.284 141.712 212.78 142.304 213.11 143.04L211.862 143.76C211.382 142.608 210.534 142.032 209.318 142.032C208.71 142.032 208.22 142.181 207.846 142.48C207.473 142.779 207.286 143.184 207.286 143.696C207.286 144.187 207.462 144.56 207.814 144.816C208.166 145.072 208.774 145.339 209.638 145.616C209.948 145.712 210.166 145.781 210.294 145.824C210.422 145.867 210.62 145.941 210.886 146.048C211.164 146.155 211.366 146.24 211.494 146.304C211.622 146.368 211.793 146.459 212.006 146.576C212.23 146.693 212.396 146.805 212.502 146.912C212.609 147.019 212.732 147.152 212.87 147.312C213.02 147.461 213.126 147.616 213.19 147.776C213.254 147.936 213.308 148.123 213.35 148.336C213.404 148.539 213.43 148.757 213.43 148.992C213.43 149.973 213.073 150.757 212.358 151.344C211.644 151.92 210.71 152.208 209.558 152.208ZM216.212 148.64C216.35 149.355 216.676 149.909 217.188 150.304C217.71 150.699 218.35 150.896 219.108 150.896C220.164 150.896 220.932 150.507 221.412 149.728L222.596 150.4C221.817 151.605 220.644 152.208 219.076 152.208C217.806 152.208 216.772 151.813 215.972 151.024C215.182 150.224 214.788 149.216 214.788 148C214.788 146.795 215.177 145.792 215.956 144.992C216.734 144.192 217.742 143.792 218.98 143.792C220.153 143.792 221.108 144.208 221.844 145.04C222.59 145.861 222.964 146.853 222.964 148.016C222.964 148.219 222.948 148.427 222.916 148.64H216.212ZM218.98 145.104C218.233 145.104 217.614 145.317 217.124 145.744C216.633 146.16 216.329 146.72 216.212 147.424H221.556C221.438 146.667 221.14 146.091 220.66 145.696C220.18 145.301 219.62 145.104 218.98 145.104ZM231.172 144H232.564V152H231.172V150.624C230.479 151.68 229.471 152.208 228.148 152.208C227.028 152.208 226.074 151.803 225.284 150.992C224.495 150.171 224.1 149.173 224.1 148C224.1 146.827 224.495 145.835 225.284 145.024C226.074 144.203 227.028 143.792 228.148 143.792C229.471 143.792 230.479 144.32 231.172 145.376V144ZM228.324 150.864C229.135 150.864 229.812 150.592 230.356 150.048C230.9 149.493 231.172 148.811 231.172 148C231.172 147.189 230.9 146.512 230.356 145.968C229.812 145.413 229.135 145.136 228.324 145.136C227.524 145.136 226.852 145.413 226.308 145.968C225.764 146.512 225.492 147.189 225.492 148C225.492 148.811 225.764 149.493 226.308 150.048C226.852 150.592 227.524 150.864 228.324 150.864ZM243.313 143.792C244.209 143.792 244.935 144.085 245.489 144.672C246.044 145.248 246.321 146.032 246.321 147.024V152H244.929V147.072C244.929 146.453 244.769 145.973 244.449 145.632C244.129 145.291 243.703 145.12 243.169 145.12C242.572 145.12 242.092 145.323 241.729 145.728C241.377 146.123 241.201 146.731 241.201 147.552V152H239.809V147.072C239.809 146.453 239.655 145.973 239.345 145.632C239.047 145.291 238.636 145.12 238.113 145.12C237.527 145.12 237.036 145.323 236.641 145.728C236.257 146.133 236.065 146.741 236.065 147.552V152H234.673V144H236.065V145.072C236.609 144.219 237.404 143.792 238.449 143.792C239.527 143.792 240.311 144.245 240.801 145.152C241.356 144.245 242.193 143.792 243.313 143.792ZM248.251 152V140.32H249.643V152H248.251ZM252.743 148.64C252.882 149.355 253.207 149.909 253.719 150.304C254.242 150.699 254.882 150.896 255.639 150.896C256.695 150.896 257.463 150.507 257.943 149.728L259.127 150.4C258.348 151.605 257.175 152.208 255.607 152.208C254.338 152.208 253.303 151.813 252.503 151.024C251.714 150.224 251.319 149.216 251.319 148C251.319 146.795 251.708 145.792 252.487 144.992C253.266 144.192 254.274 143.792 255.511 143.792C256.684 143.792 257.639 144.208 258.375 145.04C259.122 145.861 259.495 146.853 259.495 148.016C259.495 148.219 259.479 148.427 259.447 148.64H252.743ZM255.511 145.104C254.764 145.104 254.146 145.317 253.655 145.744C253.164 146.16 252.86 146.72 252.743 147.424H258.087C257.97 146.667 257.671 146.091 257.191 145.696C256.711 145.301 256.151 145.104 255.511 145.104ZM261.983 146.16C261.983 146.469 262.137 146.72 262.447 146.912C262.756 147.093 263.129 147.243 263.567 147.36C264.004 147.467 264.441 147.595 264.879 147.744C265.316 147.883 265.689 148.128 265.999 148.48C266.308 148.821 266.463 149.264 266.463 149.808C266.463 150.533 266.18 151.115 265.615 151.552C265.06 151.989 264.345 152.208 263.471 152.208C262.692 152.208 262.025 152.037 261.471 151.696C260.916 151.355 260.521 150.901 260.287 150.336L261.487 149.648C261.615 150.032 261.855 150.336 262.207 150.56C262.559 150.784 262.98 150.896 263.471 150.896C263.929 150.896 264.308 150.811 264.607 150.64C264.905 150.459 265.055 150.181 265.055 149.808C265.055 149.499 264.9 149.253 264.591 149.072C264.281 148.88 263.908 148.731 263.471 148.624C263.033 148.507 262.596 148.373 262.159 148.224C261.721 148.075 261.348 147.829 261.039 147.488C260.729 147.147 260.575 146.709 260.575 146.176C260.575 145.483 260.841 144.912 261.375 144.464C261.919 144.016 262.596 143.792 263.407 143.792C264.057 143.792 264.633 143.941 265.135 144.24C265.647 144.528 266.031 144.933 266.287 145.456L265.119 146.112C264.831 145.429 264.26 145.088 263.407 145.088C263.012 145.088 262.676 145.184 262.399 145.376C262.121 145.557 261.983 145.819 261.983 146.16ZM268.811 146.16C268.811 146.469 268.965 146.72 269.275 146.912C269.584 147.093 269.957 147.243 270.395 147.36C270.832 147.467 271.269 147.595 271.707 147.744C272.144 147.883 272.517 148.128 272.827 148.48C273.136 148.821 273.291 149.264 273.291 149.808C273.291 150.533 273.008 151.115 272.443 151.552C271.888 151.989 271.173 152.208 270.299 152.208C269.52 152.208 268.853 152.037 268.299 151.696C267.744 151.355 267.349 150.901 267.115 150.336L268.315 149.648C268.443 150.032 268.683 150.336 269.035 150.56C269.387 150.784 269.808 150.896 270.299 150.896C270.757 150.896 271.136 150.811 271.435 150.64C271.733 150.459 271.883 150.181 271.883 149.808C271.883 149.499 271.728 149.253 271.419 149.072C271.109 148.88 270.736 148.731 270.299 148.624C269.861 148.507 269.424 148.373 268.987 148.224C268.549 148.075 268.176 147.829 267.867 147.488C267.557 147.147 267.403 146.709 267.403 146.176C267.403 145.483 267.669 144.912 268.203 144.464C268.747 144.016 269.424 143.792 270.235 143.792C270.885 143.792 271.461 143.941 271.963 144.24C272.475 144.528 272.859 144.933 273.115 145.456L271.947 146.112C271.659 145.429 271.088 145.088 270.235 145.088C269.84 145.088 269.504 145.184 269.227 145.376C268.949 145.557 268.811 145.819 268.811 146.16ZM274.861 152V140.32H276.253V152H274.861ZM283.96 144H285.448L282.184 152.496C281.843 153.403 281.363 154.091 280.744 154.56C280.136 155.04 279.432 155.253 278.632 155.2V153.904C279.614 153.979 280.334 153.435 280.792 152.272L280.936 151.968L277.448 144H278.936L281.656 150.272L283.96 144ZM294.963 145.344H292.835V149.68C292.835 150.075 292.909 150.357 293.059 150.528C293.219 150.688 293.459 150.773 293.779 150.784C294.099 150.784 294.493 150.773 294.963 150.752V152C293.747 152.16 292.856 152.064 292.291 151.712C291.725 151.349 291.443 150.672 291.443 149.68V145.344H289.859V144H291.443V142.176L292.835 141.76V144H294.963V145.344ZM298.05 145.344C298.508 144.352 299.34 143.856 300.546 143.856V145.312C299.863 145.28 299.276 145.461 298.786 145.856C298.295 146.251 298.05 146.885 298.05 147.76V152H296.658V144H298.05V145.344ZM308.094 144H309.486V152H308.094V150.624C307.401 151.68 306.393 152.208 305.07 152.208C303.95 152.208 302.995 151.803 302.206 150.992C301.417 150.171 301.022 149.173 301.022 148C301.022 146.827 301.417 145.835 302.206 145.024C302.995 144.203 303.95 143.792 305.07 143.792C306.393 143.792 307.401 144.32 308.094 145.376V144ZM305.246 150.864C306.057 150.864 306.734 150.592 307.278 150.048C307.822 149.493 308.094 148.811 308.094 148C308.094 147.189 307.822 146.512 307.278 145.968C306.734 145.413 306.057 145.136 305.246 145.136C304.446 145.136 303.774 145.413 303.23 145.968C302.686 146.512 302.414 147.189 302.414 148C302.414 148.811 302.686 149.493 303.23 150.048C303.774 150.592 304.446 150.864 305.246 150.864ZM315.579 143.792C316.518 143.792 317.27 144.091 317.835 144.688C318.4 145.275 318.683 146.075 318.683 147.088V152H317.291V147.168C317.291 146.517 317.115 146.016 316.763 145.664C316.411 145.301 315.926 145.12 315.307 145.12C314.614 145.12 314.054 145.339 313.627 145.776C313.2 146.203 312.987 146.864 312.987 147.76V152H311.595V144H312.987V145.152C313.552 144.245 314.416 143.792 315.579 143.792ZM321.826 146.16C321.826 146.469 321.981 146.72 322.29 146.912C322.6 147.093 322.973 147.243 323.41 147.36C323.848 147.467 324.285 147.595 324.722 147.744C325.16 147.883 325.533 148.128 325.842 148.48C326.152 148.821 326.306 149.264 326.306 149.808C326.306 150.533 326.024 151.115 325.458 151.552C324.904 151.989 324.189 152.208 323.314 152.208C322.536 152.208 321.869 152.037 321.314 151.696C320.76 151.355 320.365 150.901 320.13 150.336L321.33 149.648C321.458 150.032 321.698 150.336 322.05 150.56C322.402 150.784 322.824 150.896 323.314 150.896C323.773 150.896 324.152 150.811 324.45 150.64C324.749 150.459 324.898 150.181 324.898 149.808C324.898 149.499 324.744 149.253 324.434 149.072C324.125 148.88 323.752 148.731 323.314 148.624C322.877 148.507 322.44 148.373 322.002 148.224C321.565 148.075 321.192 147.829 320.882 147.488C320.573 147.147 320.418 146.709 320.418 146.176C320.418 145.483 320.685 144.912 321.218 144.464C321.762 144.016 322.44 143.792 323.25 143.792C323.901 143.792 324.477 143.941 324.978 144.24C325.49 144.528 325.874 144.933 326.13 145.456L324.962 146.112C324.674 145.429 324.104 145.088 323.25 145.088C322.856 145.088 322.52 145.184 322.242 145.376C321.965 145.557 321.826 145.819 321.826 146.16ZM331.895 141.936C330.487 141.819 329.783 142.427 329.783 143.76V144H331.895V145.344H329.783V152H328.391V145.344H327.111V144H328.391V143.76C328.391 142.683 328.689 141.867 329.287 141.312C329.895 140.757 330.764 140.517 331.895 140.592V141.936ZM339.269 150.992C338.448 151.803 337.45 152.208 336.277 152.208C335.104 152.208 334.106 151.803 333.285 150.992C332.474 150.181 332.069 149.184 332.069 148C332.069 146.816 332.474 145.819 333.285 145.008C334.106 144.197 335.104 143.792 336.277 143.792C337.45 143.792 338.448 144.197 339.269 145.008C340.09 145.819 340.501 146.816 340.501 148C340.501 149.184 340.09 150.181 339.269 150.992ZM336.277 150.848C337.077 150.848 337.749 150.576 338.293 150.032C338.837 149.488 339.109 148.811 339.109 148C339.109 147.189 338.837 146.512 338.293 145.968C337.749 145.424 337.077 145.152 336.277 145.152C335.488 145.152 334.821 145.424 334.277 145.968C333.733 146.512 333.461 147.189 333.461 148C333.461 148.811 333.733 149.488 334.277 150.032C334.821 150.576 335.488 150.848 336.277 150.848ZM343.534 145.344C343.993 144.352 344.825 143.856 346.03 143.856V145.312C345.347 145.28 344.761 145.461 344.27 145.856C343.779 146.251 343.534 146.885 343.534 147.76V152H342.142V144H343.534V145.344ZM356.032 143.792C356.928 143.792 357.653 144.085 358.208 144.672C358.763 145.248 359.04 146.032 359.04 147.024V152H357.648V147.072C357.648 146.453 357.488 145.973 357.168 145.632C356.848 145.291 356.421 145.12 355.888 145.12C355.291 145.12 354.811 145.323 354.448 145.728C354.096 146.123 353.92 146.731 353.92 147.552V152H352.528V147.072C352.528 146.453 352.373 145.973 352.064 145.632C351.765 145.291 351.355 145.12 350.832 145.12C350.245 145.12 349.755 145.323 349.36 145.728C348.976 146.133 348.784 146.741 348.784 147.552V152H347.392V144H348.784V145.072C349.328 144.219 350.123 143.792 351.168 143.792C352.245 143.792 353.029 144.245 353.52 145.152C354.075 144.245 354.912 143.792 356.032 143.792ZM370.554 144H372.042L368.778 152.496C368.437 153.403 367.957 154.091 367.338 154.56C366.73 155.04 366.026 155.253 365.226 155.2V153.904C366.207 153.979 366.927 153.435 367.386 152.272L367.53 151.968L364.042 144H365.53L368.25 150.272L370.554 144ZM379.644 150.992C378.823 151.803 377.825 152.208 376.652 152.208C375.479 152.208 374.481 151.803 373.66 150.992C372.849 150.181 372.444 149.184 372.444 148C372.444 146.816 372.849 145.819 373.66 145.008C374.481 144.197 375.479 143.792 376.652 143.792C377.825 143.792 378.823 144.197 379.644 145.008C380.465 145.819 380.876 146.816 380.876 148C380.876 149.184 380.465 150.181 379.644 150.992ZM376.652 150.848C377.452 150.848 378.124 150.576 378.668 150.032C379.212 149.488 379.484 148.811 379.484 148C379.484 147.189 379.212 146.512 378.668 145.968C378.124 145.424 377.452 145.152 376.652 145.152C375.863 145.152 375.196 145.424 374.652 145.968C374.108 146.512 373.836 147.189 373.836 148C373.836 148.811 374.108 149.488 374.652 150.032C375.196 150.576 375.863 150.848 376.652 150.848ZM388.037 144H389.429V152H388.037V150.848C387.472 151.755 386.608 152.208 385.445 152.208C384.506 152.208 383.754 151.915 383.189 151.328C382.624 150.731 382.341 149.925 382.341 148.912V144H383.733V148.832C383.733 149.483 383.909 149.989 384.261 150.352C384.613 150.704 385.098 150.88 385.717 150.88C386.41 150.88 386.97 150.667 387.397 150.24C387.824 149.803 388.037 149.136 388.037 148.24V144ZM392.94 145.344C393.399 144.352 394.231 143.856 395.436 143.856V145.312C394.754 145.28 394.167 145.461 393.676 145.856C393.186 146.251 392.94 146.885 392.94 147.76V152H391.548V144H392.94V145.344ZM400.798 152V140.32H402.19V152H400.798ZM411.066 150.992C410.244 151.803 409.247 152.208 408.074 152.208C406.9 152.208 405.903 151.803 405.082 150.992C404.271 150.181 403.866 149.184 403.866 148C403.866 146.816 404.271 145.819 405.082 145.008C405.903 144.197 406.9 143.792 408.074 143.792C409.247 143.792 410.244 144.197 411.066 145.008C411.887 145.819 412.298 146.816 412.298 148C412.298 149.184 411.887 150.181 411.066 150.992ZM408.074 150.848C408.874 150.848 409.546 150.576 410.09 150.032C410.634 149.488 410.906 148.811 410.906 148C410.906 147.189 410.634 146.512 410.09 145.968C409.546 145.424 408.874 145.152 408.074 145.152C407.284 145.152 406.618 145.424 406.074 145.968C405.53 146.512 405.258 147.189 405.258 148C405.258 148.811 405.53 149.488 406.074 150.032C406.618 150.576 407.284 150.848 408.074 150.848ZM417.923 143.792C418.861 143.792 419.613 144.091 420.179 144.688C420.744 145.275 421.027 146.075 421.027 147.088V152H419.635V147.168C419.635 146.517 419.459 146.016 419.107 145.664C418.755 145.301 418.269 145.12 417.651 145.12C416.957 145.12 416.397 145.339 415.971 145.776C415.544 146.203 415.331 146.864 415.331 147.76V152H413.939V144H415.331V145.152C415.896 144.245 416.76 143.792 417.923 143.792ZM429.61 144H430.986V151.664C430.986 152.848 430.586 153.765 429.786 154.416C428.986 155.077 428.026 155.408 426.906 155.408C426.01 155.408 425.237 155.237 424.586 154.896C423.935 154.565 423.445 154.085 423.114 153.456L424.33 152.768C424.767 153.664 425.637 154.112 426.938 154.112C427.77 154.112 428.421 153.893 428.89 153.456C429.37 153.019 429.61 152.421 429.61 151.664V150.528C428.906 151.595 427.903 152.128 426.602 152.128C425.461 152.128 424.495 151.723 423.706 150.912C422.917 150.101 422.522 149.115 422.522 147.952C422.522 146.789 422.917 145.808 423.706 145.008C424.495 144.197 425.461 143.792 426.602 143.792C427.914 143.792 428.917 144.32 429.61 145.376V144ZM424.73 149.984C425.274 150.528 425.951 150.8 426.762 150.8C427.573 150.8 428.25 150.528 428.794 149.984C429.338 149.44 429.61 148.763 429.61 147.952C429.61 147.152 429.338 146.48 428.794 145.936C428.25 145.392 427.573 145.12 426.762 145.12C425.951 145.12 425.274 145.392 424.73 145.936C424.186 146.48 423.914 147.152 423.914 147.952C423.914 148.763 424.186 149.44 424.73 149.984ZM444.327 151.136C443.548 151.851 442.54 152.208 441.303 152.208C440.066 152.208 439.052 151.851 438.263 151.136C437.484 150.411 437.095 149.445 437.095 148.24V140.8H438.583V148.176C438.583 148.965 438.818 149.595 439.287 150.064C439.756 150.523 440.428 150.752 441.303 150.752C442.178 150.752 442.85 150.523 443.319 150.064C443.788 149.595 444.023 148.965 444.023 148.176V140.8H445.495V148.24C445.495 149.445 445.106 150.411 444.327 151.136ZM454.41 152L451.898 147.712H449.258V152H447.77V140.8H452.25C453.21 140.8 454.032 141.141 454.714 141.824C455.397 142.496 455.738 143.312 455.738 144.272C455.738 144.997 455.52 145.659 455.082 146.256C454.656 146.853 454.101 147.275 453.418 147.52L456.058 152H454.41ZM449.258 142.192V146.368H452.25C452.805 146.368 453.274 146.165 453.658 145.76C454.053 145.344 454.25 144.848 454.25 144.272C454.25 143.696 454.053 143.205 453.658 142.8C453.274 142.395 452.805 142.192 452.25 142.192H449.258ZM459.04 150.592H463.872V152H457.552V140.8H459.04V150.592ZM466.42 146.16C466.42 146.469 466.575 146.72 466.884 146.912C467.193 147.093 467.567 147.243 468.004 147.36C468.441 147.467 468.879 147.595 469.316 147.744C469.753 147.883 470.127 148.128 470.436 148.48C470.745 148.821 470.9 149.264 470.9 149.808C470.9 150.533 470.617 151.115 470.052 151.552C469.497 151.989 468.783 152.208 467.908 152.208C467.129 152.208 466.463 152.037 465.908 151.696C465.353 151.355 464.959 150.901 464.724 150.336L465.924 149.648C466.052 150.032 466.292 150.336 466.644 150.56C466.996 150.784 467.417 150.896 467.908 150.896C468.367 150.896 468.745 150.811 469.044 150.64C469.343 150.459 469.492 150.181 469.492 149.808C469.492 149.499 469.337 149.253 469.028 149.072C468.719 148.88 468.345 148.731 467.908 148.624C467.471 148.507 467.033 148.373 466.596 148.224C466.159 148.075 465.785 147.829 465.476 147.488C465.167 147.147 465.012 146.709 465.012 146.176C465.012 145.483 465.279 144.912 465.812 144.464C466.356 144.016 467.033 143.792 467.844 143.792C468.495 143.792 469.071 143.941 469.572 144.24C470.084 144.528 470.468 144.933 470.724 145.456L469.556 146.112C469.268 145.429 468.697 145.088 467.844 145.088C467.449 145.088 467.113 145.184 466.836 145.376C466.559 145.557 466.42 145.819 466.42 146.16ZM477.252 142.544C476.986 142.544 476.762 142.453 476.58 142.272C476.399 142.091 476.308 141.872 476.308 141.616C476.308 141.36 476.399 141.141 476.58 140.96C476.762 140.768 476.986 140.672 477.252 140.672C477.508 140.672 477.727 140.768 477.908 140.96C478.09 141.141 478.18 141.36 478.18 141.616C478.18 141.872 478.09 142.091 477.908 142.272C477.727 142.453 477.508 142.544 477.252 142.544ZM476.548 152V144H477.94V152H476.548ZM484.048 143.792C484.986 143.792 485.738 144.091 486.304 144.688C486.869 145.275 487.152 146.075 487.152 147.088V152H485.76V147.168C485.76 146.517 485.584 146.016 485.232 145.664C484.88 145.301 484.394 145.12 483.776 145.12C483.082 145.12 482.522 145.339 482.096 145.776C481.669 146.203 481.456 146.864 481.456 147.76V152H480.064V144H481.456V145.152C482.021 144.245 482.885 143.792 484.048 143.792ZM493.447 145.344H491.319V149.68C491.319 150.075 491.394 150.357 491.543 150.528C491.703 150.688 491.943 150.773 492.263 150.784C492.583 150.784 492.978 150.773 493.447 150.752V152C492.231 152.16 491.34 152.064 490.775 151.712C490.21 151.349 489.927 150.672 489.927 149.68V145.344H488.343V144H489.927V142.176L491.319 141.76V144H493.447V145.344ZM501.441 150.992C500.619 151.803 499.622 152.208 498.449 152.208C497.275 152.208 496.278 151.803 495.457 150.992C494.646 150.181 494.241 149.184 494.241 148C494.241 146.816 494.646 145.819 495.457 145.008C496.278 144.197 497.275 143.792 498.449 143.792C499.622 143.792 500.619 144.197 501.441 145.008C502.262 145.819 502.673 146.816 502.673 148C502.673 149.184 502.262 150.181 501.441 150.992ZM498.449 150.848C499.249 150.848 499.921 150.576 500.465 150.032C501.009 149.488 501.281 148.811 501.281 148C501.281 147.189 501.009 146.512 500.465 145.968C499.921 145.424 499.249 145.152 498.449 145.152C497.659 145.152 496.993 145.424 496.449 145.968C495.905 146.512 495.633 147.189 495.633 148C495.633 148.811 495.905 149.488 496.449 150.032C496.993 150.576 497.659 150.848 498.449 150.848ZM512.042 152.208C510.836 152.208 509.828 151.803 509.018 150.992C508.218 150.181 507.818 149.184 507.818 148C507.818 146.805 508.218 145.808 509.018 145.008C509.828 144.197 510.836 143.792 512.042 143.792C512.82 143.792 513.53 143.979 514.17 144.352C514.81 144.725 515.29 145.227 515.61 145.856L514.122 146.72C513.94 146.336 513.663 146.037 513.29 145.824C512.927 145.6 512.506 145.488 512.026 145.488C511.322 145.488 510.73 145.728 510.25 146.208C509.78 146.688 509.546 147.285 509.546 148C509.546 148.715 509.78 149.312 510.25 149.792C510.73 150.272 511.322 150.512 512.026 150.512C512.495 150.512 512.916 150.4 513.29 150.176C513.674 149.952 513.962 149.653 514.154 149.28L515.642 150.128C515.3 150.768 514.81 151.275 514.17 151.648C513.53 152.021 512.82 152.208 512.042 152.208ZM520.542 152.208C519.368 152.208 518.371 151.803 517.55 150.992C516.728 150.181 516.318 149.184 516.318 148C516.318 146.816 516.728 145.819 517.55 145.008C518.371 144.197 519.368 143.792 520.542 143.792C521.726 143.792 522.723 144.197 523.534 145.008C524.355 145.819 524.766 146.816 524.766 148C524.766 149.184 524.355 150.181 523.534 150.992C522.723 151.803 521.726 152.208 520.542 152.208ZM518.766 149.808C519.246 150.288 519.838 150.528 520.542 150.528C521.246 150.528 521.838 150.288 522.318 149.808C522.798 149.328 523.038 148.725 523.038 148C523.038 147.275 522.798 146.672 522.318 146.192C521.838 145.712 521.246 145.472 520.542 145.472C519.838 145.472 519.246 145.712 518.766 146.192C518.286 146.672 518.046 147.275 518.046 148C518.046 148.725 518.286 149.328 518.766 149.808ZM530.536 143.792C531.454 143.792 532.195 144.085 532.76 144.672C533.326 145.259 533.608 146.064 533.608 147.088V152H531.88V147.264C531.88 146.667 531.72 146.208 531.4 145.888C531.08 145.568 530.643 145.408 530.088 145.408C529.48 145.408 528.99 145.6 528.616 145.984C528.243 146.357 528.056 146.933 528.056 147.712V152H526.328V144H528.056V145.024C528.579 144.203 529.406 143.792 530.536 143.792ZM539.245 152.208C538.04 152.208 537.032 151.803 536.221 150.992C535.421 150.181 535.021 149.184 535.021 148C535.021 146.805 535.421 145.808 536.221 145.008C537.032 144.197 538.04 143.792 539.245 143.792C540.024 143.792 540.733 143.979 541.373 144.352C542.013 144.725 542.493 145.227 542.813 145.856L541.325 146.72C541.144 146.336 540.866 146.037 540.493 145.824C540.13 145.6 539.709 145.488 539.229 145.488C538.525 145.488 537.933 145.728 537.453 146.208C536.984 146.688 536.749 147.285 536.749 148C536.749 148.715 536.984 149.312 537.453 149.792C537.933 150.272 538.525 150.512 539.229 150.512C539.698 150.512 540.12 150.4 540.493 150.176C540.877 149.952 541.165 149.653 541.357 149.28L542.845 150.128C542.504 150.768 542.013 151.275 541.373 151.648C540.733 152.021 540.024 152.208 539.245 152.208ZM545.726 142.48C545.513 142.693 545.257 142.8 544.958 142.8C544.659 142.8 544.398 142.693 544.174 142.48C543.961 142.256 543.854 141.995 543.854 141.696C543.854 141.397 543.961 141.141 544.174 140.928C544.387 140.704 544.649 140.592 544.958 140.592C545.267 140.592 545.529 140.704 545.742 140.928C545.955 141.141 546.062 141.397 546.062 141.696C546.062 141.995 545.95 142.256 545.726 142.48ZM544.094 152V144H545.822V152H544.094ZM549.333 146.208C549.333 146.475 549.477 146.688 549.765 146.848C550.064 146.997 550.421 147.131 550.837 147.248C551.264 147.355 551.691 147.483 552.117 147.632C552.544 147.781 552.901 148.037 553.189 148.4C553.488 148.752 553.637 149.2 553.637 149.744C553.637 150.512 553.339 151.115 552.741 151.552C552.155 151.989 551.413 152.208 550.517 152.208C549.728 152.208 549.051 152.043 548.485 151.712C547.92 151.381 547.509 150.923 547.253 150.336L548.741 149.472C549.019 150.24 549.611 150.624 550.517 150.624C551.424 150.624 551.877 150.325 551.877 149.728C551.877 149.472 551.728 149.264 551.429 149.104C551.141 148.944 550.784 148.811 550.357 148.704C549.941 148.587 549.52 148.453 549.093 148.304C548.667 148.155 548.304 147.909 548.005 147.568C547.717 147.216 547.573 146.773 547.573 146.24C547.573 145.504 547.851 144.912 548.405 144.464C548.971 144.016 549.669 143.792 550.501 143.792C551.163 143.792 551.749 143.941 552.261 144.24C552.784 144.528 553.184 144.933 553.461 145.456L552.005 146.272C551.728 145.664 551.227 145.36 550.501 145.36C550.171 145.36 549.893 145.435 549.669 145.584C549.445 145.723 549.333 145.931 549.333 146.208ZM556.313 148.736C556.441 149.344 556.735 149.813 557.193 150.144C557.652 150.464 558.212 150.624 558.873 150.624C559.791 150.624 560.479 150.293 560.937 149.632L562.361 150.464C561.572 151.627 560.404 152.208 558.857 152.208C557.556 152.208 556.505 151.813 555.705 151.024C554.905 150.224 554.505 149.216 554.505 148C554.505 146.805 554.9 145.808 555.689 145.008C556.479 144.197 557.492 143.792 558.729 143.792C559.903 143.792 560.863 144.203 561.609 145.024C562.367 145.845 562.745 146.843 562.745 148.016C562.745 148.197 562.724 148.437 562.681 148.736H556.313ZM556.297 147.328H561.001C560.884 146.677 560.612 146.187 560.185 145.856C559.769 145.525 559.279 145.36 558.713 145.36C558.073 145.36 557.54 145.536 557.113 145.888C556.687 146.24 556.415 146.72 556.297 147.328ZM249.25 168H250.642V176H249.25V174.624C248.557 175.68 247.549 176.208 246.226 176.208C245.106 176.208 244.152 175.803 243.362 174.992C242.573 174.171 242.178 173.173 242.178 172C242.178 170.827 242.573 169.835 243.362 169.024C244.152 168.203 245.106 167.792 246.226 167.792C247.549 167.792 248.557 168.32 249.25 169.376V168ZM246.402 174.864C247.213 174.864 247.89 174.592 248.434 174.048C248.978 173.493 249.25 172.811 249.25 172C249.25 171.189 248.978 170.512 248.434 169.968C247.89 169.413 247.213 169.136 246.402 169.136C245.602 169.136 244.93 169.413 244.386 169.968C243.842 170.512 243.57 171.189 243.57 172C243.57 172.811 243.842 173.493 244.386 174.048C244.93 174.592 245.602 174.864 246.402 174.864ZM256.735 167.792C257.674 167.792 258.426 168.091 258.991 168.688C259.557 169.275 259.839 170.075 259.839 171.088V176H258.447V171.168C258.447 170.517 258.271 170.016 257.919 169.664C257.567 169.301 257.082 169.12 256.463 169.12C255.77 169.12 255.21 169.339 254.783 169.776C254.357 170.203 254.143 170.864 254.143 171.76V176H252.751V168H254.143V169.152C254.709 168.245 255.573 167.792 256.735 167.792ZM268.407 164.8H269.799V176H268.407V174.624C267.713 175.68 266.705 176.208 265.383 176.208C264.263 176.208 263.308 175.803 262.519 174.992C261.729 174.171 261.335 173.173 261.335 172C261.335 170.827 261.729 169.835 262.519 169.024C263.308 168.203 264.263 167.792 265.383 167.792C266.705 167.792 267.713 168.32 268.407 169.376V164.8ZM265.559 174.864C266.369 174.864 267.047 174.592 267.591 174.048C268.135 173.493 268.407 172.811 268.407 172C268.407 171.189 268.135 170.512 267.591 169.968C267.047 169.413 266.369 169.136 265.559 169.136C264.759 169.136 264.087 169.413 263.543 169.968C262.999 170.512 262.727 171.189 262.727 172C262.727 172.811 262.999 173.493 263.543 174.048C264.087 174.592 264.759 174.864 265.559 174.864ZM277.412 170.208C277.412 170.475 277.556 170.688 277.844 170.848C278.142 170.997 278.5 171.131 278.916 171.248C279.342 171.355 279.769 171.483 280.196 171.632C280.622 171.781 280.98 172.037 281.268 172.4C281.566 172.752 281.716 173.2 281.716 173.744C281.716 174.512 281.417 175.115 280.82 175.552C280.233 175.989 279.492 176.208 278.596 176.208C277.806 176.208 277.129 176.043 276.564 175.712C275.998 175.381 275.588 174.923 275.332 174.336L276.82 173.472C277.097 174.24 277.689 174.624 278.596 174.624C279.502 174.624 279.956 174.325 279.956 173.728C279.956 173.472 279.806 173.264 279.508 173.104C279.22 172.944 278.862 172.811 278.436 172.704C278.02 172.587 277.598 172.453 277.172 172.304C276.745 172.155 276.382 171.909 276.084 171.568C275.796 171.216 275.652 170.773 275.652 170.24C275.652 169.504 275.929 168.912 276.484 168.464C277.049 168.016 277.748 167.792 278.58 167.792C279.241 167.792 279.828 167.941 280.34 168.24C280.862 168.528 281.262 168.933 281.54 169.456L280.084 170.272C279.806 169.664 279.305 169.36 278.58 169.36C278.249 169.36 277.972 169.435 277.748 169.584C277.524 169.723 277.412 169.931 277.412 170.208ZM287.349 167.792C288.266 167.792 289.007 168.085 289.573 168.672C290.138 169.259 290.421 170.064 290.421 171.088V176H288.693V171.264C288.693 170.667 288.533 170.208 288.213 169.888C287.893 169.568 287.455 169.408 286.901 169.408C286.293 169.408 285.802 169.6 285.429 169.984C285.055 170.357 284.869 170.933 284.869 171.712V176H283.141V164.8H284.869V169.024C285.391 168.203 286.218 167.792 287.349 167.792ZM298.617 168H300.345V176H298.617V174.848C297.967 175.755 297.033 176.208 295.817 176.208C294.719 176.208 293.78 175.803 293.001 174.992C292.223 174.171 291.833 173.173 291.833 172C291.833 170.816 292.223 169.819 293.001 169.008C293.78 168.197 294.719 167.792 295.817 167.792C297.033 167.792 297.967 168.24 298.617 169.136V168ZM294.281 173.84C294.761 174.32 295.364 174.56 296.089 174.56C296.815 174.56 297.417 174.32 297.897 173.84C298.377 173.349 298.617 172.736 298.617 172C298.617 171.264 298.377 170.656 297.897 170.176C297.417 169.685 296.815 169.44 296.089 169.44C295.364 169.44 294.761 169.685 294.281 170.176C293.801 170.656 293.561 171.264 293.561 172C293.561 172.736 293.801 173.349 294.281 173.84ZM304.088 169.344C304.525 168.352 305.346 167.856 306.552 167.856V169.728C305.89 169.685 305.314 169.845 304.824 170.208C304.333 170.56 304.088 171.147 304.088 171.968V176H302.36V168H304.088V169.344ZM308.813 172.736C308.941 173.344 309.235 173.813 309.693 174.144C310.152 174.464 310.712 174.624 311.373 174.624C312.291 174.624 312.979 174.293 313.437 173.632L314.861 174.464C314.072 175.627 312.904 176.208 311.357 176.208C310.056 176.208 309.005 175.813 308.205 175.024C307.405 174.224 307.005 173.216 307.005 172C307.005 170.805 307.4 169.808 308.189 169.008C308.979 168.197 309.992 167.792 311.229 167.792C312.403 167.792 313.363 168.203 314.109 169.024C314.867 169.845 315.245 170.843 315.245 172.016C315.245 172.197 315.224 172.437 315.181 172.736H308.813ZM308.797 171.328H313.501C313.384 170.677 313.112 170.187 312.685 169.856C312.269 169.525 311.779 169.36 311.213 169.36C310.573 169.36 310.04 169.536 309.613 169.888C309.187 170.24 308.915 170.72 308.797 171.328ZM323.055 168H324.783V176H323.055V174.848C322.404 175.755 321.471 176.208 320.255 176.208C319.156 176.208 318.218 175.803 317.439 174.992C316.66 174.171 316.271 173.173 316.271 172C316.271 170.816 316.66 169.819 317.439 169.008C318.218 168.197 319.156 167.792 320.255 167.792C321.471 167.792 322.404 168.24 323.055 169.136V168ZM318.719 173.84C319.199 174.32 319.802 174.56 320.527 174.56C321.252 174.56 321.855 174.32 322.335 173.84C322.815 173.349 323.055 172.736 323.055 172C323.055 171.264 322.815 170.656 322.335 170.176C321.855 169.685 321.252 169.44 320.527 169.44C319.802 169.44 319.199 169.685 318.719 170.176C318.239 170.656 317.999 171.264 317.999 172C317.999 172.736 318.239 173.349 318.719 173.84ZM331.325 167.792C332.424 167.792 333.362 168.197 334.141 169.008C334.92 169.819 335.309 170.816 335.309 172C335.309 173.173 334.92 174.171 334.141 174.992C333.362 175.803 332.424 176.208 331.325 176.208C330.109 176.208 329.176 175.755 328.525 174.848V176H326.797V164.8H328.525V169.136C329.176 168.24 330.109 167.792 331.325 167.792ZM329.245 173.84C329.725 174.32 330.328 174.56 331.053 174.56C331.778 174.56 332.381 174.32 332.861 173.84C333.341 173.349 333.581 172.736 333.581 172C333.581 171.264 333.341 170.656 332.861 170.176C332.381 169.685 331.778 169.44 331.053 169.44C330.328 169.44 329.725 169.685 329.245 170.176C328.765 170.656 328.525 171.264 328.525 172C328.525 172.736 328.765 173.349 329.245 173.84ZM336.875 176V164.32H338.603V176H336.875ZM341.97 172.736C342.098 173.344 342.391 173.813 342.85 174.144C343.308 174.464 343.868 174.624 344.53 174.624C345.447 174.624 346.135 174.293 346.594 173.632L348.018 174.464C347.228 175.627 346.06 176.208 344.514 176.208C343.212 176.208 342.162 175.813 341.362 175.024C340.562 174.224 340.162 173.216 340.162 172C340.162 170.805 340.556 169.808 341.346 169.008C342.135 168.197 343.148 167.792 344.386 167.792C345.559 167.792 346.519 168.203 347.266 169.024C348.023 169.845 348.402 170.843 348.402 172.016C348.402 172.197 348.38 172.437 348.338 172.736H341.97ZM341.954 171.328H346.658C346.54 170.677 346.268 170.187 345.842 169.856C345.426 169.525 344.935 169.36 344.37 169.36C343.73 169.36 343.196 169.536 342.77 169.888C342.343 170.24 342.071 170.72 341.954 171.328ZM353.922 176V164.32H355.65V176H353.922ZM359.288 166.48C359.075 166.693 358.819 166.8 358.52 166.8C358.222 166.8 357.96 166.693 357.736 166.48C357.523 166.256 357.416 165.995 357.416 165.696C357.416 165.397 357.523 165.141 357.736 164.928C357.95 164.704 358.211 164.592 358.52 164.592C358.83 164.592 359.091 164.704 359.304 164.928C359.518 165.141 359.624 165.397 359.624 165.696C359.624 165.995 359.512 166.256 359.288 166.48ZM357.656 176V168H359.384V176H357.656ZM365.599 167.792C366.516 167.792 367.257 168.085 367.823 168.672C368.388 169.259 368.671 170.064 368.671 171.088V176H366.943V171.264C366.943 170.667 366.783 170.208 366.463 169.888C366.143 169.568 365.705 169.408 365.151 169.408C364.543 169.408 364.052 169.6 363.679 169.984C363.305 170.357 363.119 170.933 363.119 171.712V176H361.391V168H363.119V169.024C363.641 168.203 364.468 167.792 365.599 167.792ZM377.603 176H375.539L372.259 172.304V176H370.531V164.8H372.259V171.536L375.363 168H377.475L373.955 171.92L377.603 176ZM379.755 170.208C379.755 170.475 379.899 170.688 380.187 170.848C380.486 170.997 380.843 171.131 381.259 171.248C381.686 171.355 382.113 171.483 382.539 171.632C382.966 171.781 383.323 172.037 383.611 172.4C383.91 172.752 384.059 173.2 384.059 173.744C384.059 174.512 383.761 175.115 383.163 175.552C382.577 175.989 381.835 176.208 380.939 176.208C380.15 176.208 379.473 176.043 378.907 175.712C378.342 175.381 377.931 174.923 377.675 174.336L379.163 173.472C379.441 174.24 380.033 174.624 380.939 174.624C381.846 174.624 382.299 174.325 382.299 173.728C382.299 173.472 382.15 173.264 381.851 173.104C381.563 172.944 381.206 172.811 380.779 172.704C380.363 172.587 379.942 172.453 379.515 172.304C379.089 172.155 378.726 171.909 378.427 171.568C378.139 171.216 377.995 170.773 377.995 170.24C377.995 169.504 378.273 168.912 378.827 168.464C379.393 168.016 380.091 167.792 380.923 167.792C381.585 167.792 382.171 167.941 382.683 168.24C383.206 168.528 383.606 168.933 383.883 169.456L382.427 170.272C382.15 169.664 381.649 169.36 380.923 169.36C380.593 169.36 380.315 169.435 380.091 169.584C379.867 169.723 379.755 169.931 379.755 170.208ZM399.05 168H400.506L398.026 176H396.602L394.73 170.08L392.858 176H391.434L388.954 168H390.41L392.17 174.08L394.058 168H395.402L397.29 174.096L399.05 168ZM402.643 166.544C402.376 166.544 402.152 166.453 401.971 166.272C401.789 166.091 401.699 165.872 401.699 165.616C401.699 165.36 401.789 165.141 401.971 164.96C402.152 164.768 402.376 164.672 402.643 164.672C402.899 164.672 403.117 164.768 403.299 164.96C403.48 165.141 403.571 165.36 403.571 165.616C403.571 165.872 403.48 166.091 403.299 166.272C403.117 166.453 402.899 166.544 402.643 166.544ZM401.939 176V168H403.331V176H401.939ZM409.806 169.344H407.678V173.68C407.678 174.075 407.753 174.357 407.902 174.528C408.062 174.688 408.302 174.773 408.622 174.784C408.942 174.784 409.337 174.773 409.806 174.752V176C408.59 176.16 407.7 176.064 407.134 175.712C406.569 175.349 406.286 174.672 406.286 173.68V169.344H404.702V168H406.286V166.176L407.678 165.76V168H409.806V169.344ZM415.438 167.792C416.377 167.792 417.129 168.091 417.694 168.688C418.26 169.275 418.542 170.075 418.542 171.088V176H417.15V171.168C417.15 170.517 416.974 170.016 416.622 169.664C416.27 169.301 415.785 169.12 415.166 169.12C414.473 169.12 413.913 169.339 413.486 169.776C413.06 170.203 412.846 170.864 412.846 171.76V176H411.454V164.8H412.846V169.152C413.412 168.245 414.276 167.792 415.438 167.792ZM425.542 166.544C425.275 166.544 425.051 166.453 424.87 166.272C424.688 166.091 424.598 165.872 424.598 165.616C424.598 165.36 424.688 165.141 424.87 164.96C425.051 164.768 425.275 164.672 425.542 164.672C425.798 164.672 426.016 164.768 426.198 164.96C426.379 165.141 426.47 165.36 426.47 165.616C426.47 165.872 426.379 166.091 426.198 166.272C426.016 166.453 425.798 166.544 425.542 166.544ZM424.838 176.48V168H426.23V176.48C426.23 177.515 425.968 178.277 425.446 178.768C424.923 179.269 424.155 179.483 423.142 179.408V178.064C423.728 178.117 424.155 178.021 424.422 177.776C424.699 177.531 424.838 177.099 424.838 176.48ZM433.865 168H435.257V176H433.865V174.848C433.3 175.755 432.436 176.208 431.273 176.208C430.334 176.208 429.582 175.915 429.017 175.328C428.452 174.731 428.169 173.925 428.169 172.912V168H429.561V172.832C429.561 173.483 429.737 173.989 430.089 174.352C430.441 174.704 430.926 174.88 431.545 174.88C432.238 174.88 432.798 174.667 433.225 174.24C433.652 173.803 433.865 173.136 433.865 172.24V168ZM438.561 170.16C438.561 170.469 438.715 170.72 439.025 170.912C439.334 171.093 439.707 171.243 440.145 171.36C440.582 171.467 441.019 171.595 441.457 171.744C441.894 171.883 442.267 172.128 442.577 172.48C442.886 172.821 443.041 173.264 443.041 173.808C443.041 174.533 442.758 175.115 442.193 175.552C441.638 175.989 440.923 176.208 440.049 176.208C439.27 176.208 438.603 176.037 438.049 175.696C437.494 175.355 437.099 174.901 436.865 174.336L438.065 173.648C438.193 174.032 438.433 174.336 438.785 174.56C439.137 174.784 439.558 174.896 440.049 174.896C440.507 174.896 440.886 174.811 441.185 174.64C441.483 174.459 441.633 174.181 441.633 173.808C441.633 173.499 441.478 173.253 441.169 173.072C440.859 172.88 440.486 172.731 440.049 172.624C439.611 172.507 439.174 172.373 438.737 172.224C438.299 172.075 437.926 171.829 437.617 171.488C437.307 171.147 437.153 170.709 437.153 170.176C437.153 169.483 437.419 168.912 437.953 168.464C438.497 168.016 439.174 167.792 439.985 167.792C440.635 167.792 441.211 167.941 441.713 168.24C442.225 168.528 442.609 168.933 442.865 169.456L441.697 170.112C441.409 169.429 440.838 169.088 439.985 169.088C439.59 169.088 439.254 169.184 438.977 169.376C438.699 169.557 438.561 169.819 438.561 170.16ZM448.728 169.344H446.6V173.68C446.6 174.075 446.675 174.357 446.824 174.528C446.984 174.688 447.224 174.773 447.544 174.784C447.864 174.784 448.259 174.773 448.728 174.752V176C447.512 176.16 446.622 176.064 446.056 175.712C445.491 175.349 445.208 174.672 445.208 173.68V169.344H443.624V168H445.208V166.176L446.6 165.76V168H448.728V169.344ZM458.535 165.936C457.127 165.819 456.423 166.427 456.423 167.76V168H458.535V169.344H456.423V176H455.031V169.344H453.751V168H455.031V167.76C455.031 166.683 455.33 165.867 455.927 165.312C456.535 164.757 457.405 164.517 458.535 164.592V165.936ZM460.134 172.64C460.272 173.355 460.598 173.909 461.11 174.304C461.632 174.699 462.272 174.896 463.03 174.896C464.086 174.896 464.854 174.507 465.334 173.728L466.518 174.4C465.739 175.605 464.566 176.208 462.998 176.208C461.728 176.208 460.694 175.813 459.894 175.024C459.104 174.224 458.71 173.216 458.71 172C458.71 170.795 459.099 169.792 459.878 168.992C460.656 168.192 461.664 167.792 462.902 167.792C464.075 167.792 465.03 168.208 465.766 169.04C466.512 169.861 466.886 170.853 466.886 172.016C466.886 172.219 466.87 172.427 466.838 172.64H460.134ZM462.902 169.104C462.155 169.104 461.536 169.317 461.046 169.744C460.555 170.16 460.251 170.72 460.134 171.424H465.478C465.36 170.667 465.062 170.091 464.582 169.696C464.102 169.301 463.542 169.104 462.902 169.104ZM477.597 168H479.053L476.573 176H475.149L473.277 170.08L471.405 176H469.981L467.501 168H468.957L470.717 174.08L472.605 168H473.949L475.837 174.096L477.597 168ZM488.246 176.208C487.04 176.208 486.038 175.808 485.238 175.008C484.438 174.197 484.038 173.195 484.038 172C484.038 170.805 484.438 169.808 485.238 169.008C486.038 168.197 487.04 167.792 488.246 167.792C489.035 167.792 489.744 167.984 490.374 168.368C491.003 168.741 491.472 169.248 491.782 169.888L490.614 170.56C490.411 170.133 490.096 169.792 489.67 169.536C489.254 169.28 488.779 169.152 488.246 169.152C487.446 169.152 486.774 169.424 486.23 169.968C485.696 170.512 485.43 171.189 485.43 172C485.43 172.8 485.696 173.472 486.23 174.016C486.774 174.56 487.446 174.832 488.246 174.832C488.779 174.832 489.259 174.709 489.686 174.464C490.112 174.208 490.438 173.867 490.662 173.44L491.846 174.128C491.504 174.757 491.014 175.264 490.374 175.648C489.734 176.021 489.024 176.208 488.246 176.208ZM493.22 176V164.32H494.612V176H493.22ZM497.44 166.544C497.173 166.544 496.949 166.453 496.768 166.272C496.586 166.091 496.496 165.872 496.496 165.616C496.496 165.36 496.586 165.141 496.768 164.96C496.949 164.768 497.173 164.672 497.44 164.672C497.696 164.672 497.914 164.768 498.096 164.96C498.277 165.141 498.368 165.36 498.368 165.616C498.368 165.872 498.277 166.091 498.096 166.272C497.914 166.453 497.696 166.544 497.44 166.544ZM496.736 176V168H498.128V176H496.736ZM504.011 176.208C502.806 176.208 501.803 175.808 501.003 175.008C500.203 174.197 499.803 173.195 499.803 172C499.803 170.805 500.203 169.808 501.003 169.008C501.803 168.197 502.806 167.792 504.011 167.792C504.801 167.792 505.51 167.984 506.139 168.368C506.769 168.741 507.238 169.248 507.547 169.888L506.379 170.56C506.177 170.133 505.862 169.792 505.435 169.536C505.019 169.28 504.545 169.152 504.011 169.152C503.211 169.152 502.539 169.424 501.995 169.968C501.462 170.512 501.195 171.189 501.195 172C501.195 172.8 501.462 173.472 501.995 174.016C502.539 174.56 503.211 174.832 504.011 174.832C504.545 174.832 505.025 174.709 505.451 174.464C505.878 174.208 506.203 173.867 506.427 173.44L507.611 174.128C507.27 174.757 506.779 175.264 506.139 175.648C505.499 176.021 504.79 176.208 504.011 176.208ZM515.754 176H514.026L510.378 172.208V176H508.986V164.8H510.378V171.536L513.834 168H515.626L511.802 171.872L515.754 176ZM517.639 170.16C517.639 170.469 517.793 170.72 518.103 170.912C518.412 171.093 518.785 171.243 519.223 171.36C519.66 171.467 520.097 171.595 520.535 171.744C520.972 171.883 521.345 172.128 521.655 172.48C521.964 172.821 522.119 173.264 522.119 173.808C522.119 174.533 521.836 175.115 521.271 175.552C520.716 175.989 520.001 176.208 519.127 176.208C518.348 176.208 517.681 176.037 517.127 175.696C516.572 175.355 516.177 174.901 515.943 174.336L517.143 173.648C517.271 174.032 517.511 174.336 517.863 174.56C518.215 174.784 518.636 174.896 519.127 174.896C519.585 174.896 519.964 174.811 520.263 174.64C520.561 174.459 520.711 174.181 520.711 173.808C520.711 173.499 520.556 173.253 520.247 173.072C519.937 172.88 519.564 172.731 519.127 172.624C518.689 172.507 518.252 172.373 517.815 172.224C517.377 172.075 517.004 171.829 516.695 171.488C516.385 171.147 516.231 170.709 516.231 170.176C516.231 169.483 516.497 168.912 517.031 168.464C517.575 168.016 518.252 167.792 519.063 167.792C519.713 167.792 520.289 167.941 520.791 168.24C521.303 168.528 521.687 168.933 521.943 169.456L520.775 170.112C520.487 169.429 519.916 169.088 519.063 169.088C518.668 169.088 518.332 169.184 518.055 169.376C517.777 169.557 517.639 169.819 517.639 170.16ZM524.475 176.176C524.187 176.176 523.942 176.075 523.739 175.872C523.536 175.669 523.435 175.424 523.435 175.136C523.435 174.848 523.536 174.603 523.739 174.4C523.942 174.197 524.187 174.096 524.475 174.096C524.774 174.096 525.019 174.197 525.211 174.4C525.414 174.603 525.515 174.848 525.515 175.136C525.515 175.424 525.414 175.669 525.211 175.872C525.019 176.075 524.774 176.176 524.475 176.176Z" fill="#141414"/>
<rect x="0.25" y="0.25" width="767.5" height="223.5" rx="23.75" stroke="#005AE2" stroke-width="0.5"/>
</g>
<defs>
<filter id="filter0_b_1_141" x="-212" y="-212" width="1192" height="648" filterUnits="userSpaceOnUse" color-interpolation-filters="sRGB">
<feFlood flood-opacity="0" result="BackgroundImageFix"/>
<feGaussianBlur in="BackgroundImageFix" stdDeviation="106"/>
<feComposite in2="SourceAlpha" operator="in" result="effect1_backgroundBlur_1_141"/>
<feBlend mode="normal" in="SourceGraphic" in2="effect1_backgroundBlur_1_141" result="shape"/>
</filter>
</defs>
</svg>
